# xmcd CD database file
#
# Track frame offsets:
#	150
#	21990
#	40500
#	60782
#
# Disc length: 1056 seconds
#
# Revision: 0
# Processed by: cddbd v1.5.1PL0 Copyright (c) Steve Scherf et al.
# Submitted via: CDex 1.60beta1
#
DISCID=22041e04
DTITLE=楠瀬 誠志郎 - しあわせ まだかい／いつかきっと…
DYEAR=9612
DGENRE=JPop
TTITLE0=しあわせ まだかい
TTITLE1=いつかきっと…
TTITLE2=しあわせ まだかい (オリジナル・カラオケ)
TTITLE3=いつかきっと… (オリジナル・カラオケ)
EXTD=YEAR: 961209
EXTT0=
EXTT1=
EXTT2=
EXTT3=
PLAYORDER=
